<?xml version="1.0" encoding="UTF-8" standalone="no"?>
<!-- Created with Inkscape (http://www.inkscape.org/) -->

<svg
   version="1.1"
   id="svg1"
   width="531.00458"
   height="531.47217"
   viewBox="0 0 531.00458 531.47217"
   sodipodi:docname="logo.svg"
   inkscape:version="1.4.2 (f4327f4, 2025-05-13)"
   xmlns:inkscape="http://www.inkscape.org/namespaces/inkscape"
   xmlns:sodipodi="http://sodipodi.sourceforge.net/DTD/sodipodi-0.dtd"
   xmlns="http://www.w3.org/2000/svg"
   xmlns:svg="http://www.w3.org/2000/svg">
  <defs
     id="defs1" />
  <sodipodi:namedview
     id="namedview1"
     pagecolor="#ffffff"
     bordercolor="#000000"
     borderopacity="0.25"
     inkscape:showpageshadow="2"
     inkscape:pageopacity="0.0"
     inkscape:pagecheckerboard="0"
     inkscape:deskcolor="#d1d1d1"
     inkscape:zoom="0.75488281"
     inkscape:cx="255.66882"
     inkscape:cy="395.42562"
     inkscape:window-width="1920"
     inkscape:window-height="991"
     inkscape:window-x="-9"
     inkscape:window-y="-9"
     inkscape:window-maximized="1"
     inkscape:current-layer="g1" />
  <g
     inkscape:groupmode="layer"
     inkscape:label="Image"
     id="g1"
     style="display:inline"
     transform="translate(-255.77134,-220.96932)">
    <path
       style="fill:#6c757d;fill-opacity:1;stroke:none"
       d="m 390.52448,751.77995 c -50.13343,-4.96628 -92.43401,-32.9735 -117.01459,-77.47537 -6.71806,-12.16271 -11.60802,-25.5999 -14.95509,-41.09538 l -2.78184,-12.87867 v -133.5 c 0,-146.75369 -0.26836,-139.66431 6.09457,-161 3.46144,-11.60661 14.01902,-32.62106 21.82371,-43.43921 21.17715,-29.35389 54.41901,-50.77541 90.08109,-58.04955 16.47601,-3.36068 28.95836,-3.62 156.00063,-3.24087 137.32232,0.40981 129.7556,0.10036 150.66992,6.16175 47.29345,13.7066 84.33781,49.23066 99.45216,95.37069 7.24057,22.10366 6.87787,13.49753 6.87787,163.19719 0,127.14335 -0.1022,135.04696 -1.8697,144.5 -5.37255,28.73502 -18.04273,54.16811 -36.94634,74.16317 -23.46987,24.82497 -49.62338,39.07876 -84.42215,46.01047 -8.03137,1.5998 -19.43198,1.75978 -136.76176,1.91909 -70.4,0.0956 -131.71182,-0.19391 -136.24848,-0.64331 z m 269.47553,-32.25999 c 25.80035,-5.51247 45.63979,-15.92459 62.37514,-32.73567 18.93038,-19.01605 30.18517,-42.83713 32.93492,-69.70767 0.75996,-7.4263 0.98271,-49.98018 0.72104,-137.74609 -0.35035,-117.51078 -0.51167,-127.56039 -2.15904,-134.5 -11.36615,-47.88037 -44.55499,-80.29187 -92.90745,-90.73138 -7.60055,-1.641 -17.6807,-1.76862 -139.69166,-1.76862 -122.42451,0 -132.07044,0.12309 -139.7654,1.78356 -24.6918,5.32815 -45.06886,16.25905 -61.46662,32.97264 -15.47646,15.77456 -25.80188,34.9827 -30.98185,57.63483 -2.18796,9.56799 -2.19882,10.13356 -2.54823,132.60897 -0.22359,78.3751 0.0208,127.53505 0.67367,135.5 1.24786,15.22419 4.65704,29.15079 9.84728,40.22648 17.80576,37.99649 54.70514,63.97465 95.99051,67.57993 4.81285,0.42029 65.00064,0.7364 133.75064,0.70248 115.32951,-0.0569 125.63648,-0.19767 133.22705,-1.81946 z M 443.65647,606.46956 c -6.57295,-1.66043 -13.37787,-5.66973 -18.27727,-10.76855 -3.87206,-4.02965 -17.98804,-33.72703 -59.11672,-124.37048 -7.23718,-15.95 -14.51303,-31.925 -16.16857,-35.5 -19.00212,-41.03356 -26.82095,-59.19852 -26.82095,-62.31132 0,-2.69282 0.71691,-4.11413 3.07673,-6.09979 l 3.07672,-2.58889 32.17328,0.004 c 29.57136,0.003 32.41589,0.15358 35.17327,1.85655 2.39067,1.47649 4.60974,5.3856 10.92545,19.24626 21.52217,47.23327 38.86249,84.62777 40.20647,86.70554 0.82255,1.27165 1.9868,2.14834 2.58722,1.9482 0.60042,-0.20014 3.60924,-5.51558 6.68626,-11.81209 8.8383,-18.08577 6.90872,-19.93719 29.45196,28.25898 10.93022,23.36817 19.04559,41.97298 19.32043,44.29282 0.41244,3.4813 -1.04793,7.35177 -11.26172,29.84737 -10.07283,22.18515 -12.41783,26.54779 -16.55057,30.79072 -8.91444,9.15211 -22.9279,13.41969 -34.48199,10.50094 z m 138.80088,-0.14985 c -10.75976,-2.99938 -20.45702,-11.16515 -25.18689,-21.20914 -20.03606,-42.54698 -79.45869,-169.8207 -90.09721,-192.97375 -4.34516,-9.45654 -7.90029,-18.15365 -7.90029,-19.32692 0,-1.17327 1.31538,-3.4486 2.92308,-5.05629 l 2.92307,-2.92308 h 32.62659 c 26.0414,0 33.1716,0.28304 35.32692,1.40236 2.21414,1.14986 6.0688,8.57701 21.40857,41.25 10.28953,21.9162 27.53839,58.52264 38.3308,81.34764 37.03697,78.32993 36.76911,77.70743 36.12539,83.95414 -0.8343,8.09605 -6.48545,18.76766 -13.17694,24.88331 -9.0649,8.28481 -22.29223,11.7211 -33.30309,8.65173 z m 59.97231,-70.23918 c -1.55629,-1.31898 -26.1567,-51.91476 -26.1567,-53.79662 0,-0.19746 -2.7,-5.87551 -6,-12.61787 -3.3,-6.74237 -6,-13.00457 -6,-13.916 0,-0.91144 7.14009,-17.35368 15.86687,-36.53833 24.46217,-53.77681 23.45094,-51.74932 26.50442,-53.14058 4.20536,-1.91609 64.73697,-1.7531 68.48368,0.1844 2.48794,1.28657 5.14503,5.20803 5.14503,7.59328 0,0.88984 -12.75527,30.01503 -24.51698,55.98172 -3.11406,6.875 -7.14265,15.875 -8.95243,20 -9.13368,20.81824 -38.8382,85.66151 -39.73994,86.75 -1.37977,1.66552 -2.18078,1.57909 -4.63395,-0.5 z"
       id="path1"
       sodipodi:nodetypes="ssscsssssssscsssssssssssssssssssscsssssccsssssssssccssssscsssssssssssssssssss" />
  </g>
</svg>
